<svg width="34" height="22" viewBox="0 0 34 22" fill="none" xmlns="http://www.w3.org/2000/svg">
<path d="M17 10.7686C15.2498 10.7697 13.5432 11.3129 12.1146 12.3231C10.6855 13.3336 9.60449 14.7618 9.02002 16.4112C8.92122 16.7973 9.13408 17.1952 9.51021 17.3275C9.88634 17.4595 10.3014 17.2818 10.4654 16.9186C11.1074 15.1124 12.47 13.6536 14.2282 12.8903C15.9864 12.1266 17.9826 12.1266 19.7408 12.8903C21.4986 13.6536 22.8612 15.1124 23.5036 16.9186C23.6558 17.3058 24.0888 17.5011 24.4801 17.3596C24.8715 17.2181 25.0791 16.7908 24.9486 16.3956C24.3634 14.7541 23.2862 13.3328 21.8636 12.3257C20.4412 11.3187 18.7424 10.775 16.9999 10.7686L17 10.7686Z" fill="black" stroke="black" stroke-width="0.390625"/>
<path d="M17 5.64844C14.3564 5.64882 11.7704 6.41938 9.55869 7.86709C7.34658 9.31435 5.60478 11.3751 4.54619 13.7975C4.37643 14.1881 4.55535 14.6424 4.94598 14.8122C5.3366 14.982 5.79093 14.8031 5.96072 14.4124C7.22146 11.5369 9.55457 9.26711 12.4637 8.08537C15.3723 6.90393 18.6274 6.90393 21.5365 8.08537C24.4452 9.26721 26.7783 11.5369 28.039 14.4124C28.2092 14.803 28.6635 14.982 29.0542 14.8122C29.2415 14.7306 29.3891 14.578 29.4639 14.3876C29.539 14.1973 29.5352 13.9852 29.4536 13.7975C28.3954 11.3751 26.6532 9.31448 24.4415 7.86712C22.2294 6.41946 19.6433 5.64886 17.0002 5.64847L17 5.64844Z" fill="black" stroke="black" stroke-width="0.390625"/>
<path d="M33.0205 9.16991C30.6985 5.5204 27.184 2.78827 23.0742 1.43788C18.965 0.0878777 14.5148 0.203013 10.4805 1.76403C6.44609 3.32504 3.07764 6.23561 0.947559 10.0004C0.767119 10.3662 0.904452 10.8098 1.25998 11.0101C1.61551 11.2104 2.06603 11.0979 2.28537 10.7538C4.24074 7.29694 7.3341 4.62506 11.0382 3.19225C14.7423 1.75983 18.8282 1.65534 22.6007 2.89662C26.3735 4.13793 29.5991 6.64799 31.7289 10.0003C31.8335 10.1834 32.0085 10.3158 32.2134 10.3658C32.4182 10.4161 32.6349 10.3799 32.8123 10.2658C32.9897 10.1518 33.1125 9.96982 33.1518 9.76268C33.1911 9.55554 33.1434 9.34116 33.0202 9.16988L33.0205 9.16991Z" fill="black" stroke="black" stroke-width="0.390625"/>
<path d="M17 16.4111C16.3881 16.4111 15.8015 16.6541 15.3692 17.0863C14.9367 17.5189 14.6937 18.1057 14.6937 18.7171C14.6937 19.329 14.9367 19.9156 15.3692 20.3479C15.8014 20.7804 16.3882 21.0235 17 21.0235C17.6115 21.0235 18.1982 20.7804 18.6308 20.3479C19.063 19.9157 19.306 19.3289 19.306 18.7171C19.306 18.1056 19.063 17.5189 18.6308 17.0863C18.1982 16.6541 17.6114 16.4111 17 16.4111ZM17 19.4861C16.6891 19.4861 16.4087 19.2988 16.2897 19.0116C16.1707 18.7243 16.2363 18.3936 16.4564 18.1735C16.6761 17.9538 17.0069 17.8882 17.2941 18.0072C17.5814 18.1262 17.7687 18.4062 17.7687 18.7171C17.7687 18.9212 17.6878 19.1165 17.5436 19.2607C17.3994 19.4049 17.2037 19.4861 17 19.4861Z" fill="black" stroke="black" stroke-width="0.390625"/>
</svg>
