<svg width="40" height="40" viewBox="0 0 40 40" fill="none" xmlns="http://www.w3.org/2000/svg">
<path d="M36.5283 4.24024H32.6847V1.54971C32.6847 1.33761 32.5126 1.16519 32.3001 1.16519C32.088 1.16519 31.916 1.33761 31.916 1.54971V4.24024H8.08494L8.08455 1.54971C8.08455 1.33761 7.91251 1.16519 7.70003 1.16519C7.48831 1.16519 7.31589 1.33761 7.31589 1.54971V4.24024H3.47224C2.20076 4.24024 1.16589 5.2752 1.16589 6.54659V36.528C1.16589 37.7995 2.20085 38.8344 3.47224 38.8344H36.5289C37.8004 38.8344 38.8352 37.7994 38.8352 36.528V6.54659C38.8352 5.2751 37.8003 4.24024 36.5289 4.24024H36.5283ZM38.066 36.5273C38.066 37.3754 37.3763 38.0647 36.5287 38.0647H3.47206C2.62405 38.0647 1.93475 37.375 1.93475 36.5273V12.6963H38.0656L38.066 36.5273ZM38.066 11.9277H1.93514V6.54639C1.93514 5.69838 2.62484 5.00909 3.47245 5.00909H7.3161V7.69962C7.3161 7.91172 7.48814 8.08414 7.70062 8.08414C7.91272 8.08414 8.08514 7.9121 8.08514 7.69962V5.00909H31.9162V7.69962C31.9162 7.91172 32.0882 8.08414 32.3007 8.08414C32.5128 8.08414 32.6852 7.9121 32.6852 7.69962V5.00909H36.5289C37.3769 5.00909 38.0662 5.69878 38.0662 6.54639L38.066 11.9277Z" fill="black" stroke="black" stroke-width="0.390625"/>
<path d="M14.6182 18.4619C14.6182 18.8865 14.2741 19.2306 13.8495 19.2306C13.4249 19.2306 13.0804 18.8865 13.0804 18.4619C13.0804 18.0373 13.4249 17.6933 13.8495 17.6933C14.2741 17.6933 14.6182 18.0373 14.6182 18.4619Z" fill="black" stroke="black" stroke-width="0.390625"/>
<path d="M20.7685 18.4619C20.7685 18.8865 20.4245 19.2306 19.9999 19.2306C19.5753 19.2306 19.2308 18.8865 19.2308 18.4619C19.2308 18.0373 19.5753 17.6933 19.9999 17.6933C20.4245 17.6933 20.7685 18.0373 20.7685 18.4619Z" fill="black" stroke="black" stroke-width="0.390625"/>
<path d="M26.9189 18.4619C26.9189 18.8865 26.5748 19.2306 26.1503 19.2306C25.7257 19.2306 25.3812 18.8865 25.3812 18.4619C25.3812 18.0373 25.7257 17.6933 26.1503 17.6933C26.5748 17.6933 26.9189 18.0373 26.9189 18.4619Z" fill="black" stroke="black" stroke-width="0.390625"/>
<path d="M33.0683 18.4619C33.0683 18.8865 32.7239 19.2306 32.2993 19.2306C31.8747 19.2306 31.5306 18.8865 31.5306 18.4619C31.5306 18.0373 31.8747 17.6933 32.2993 17.6933C32.7239 17.6933 33.0683 18.0373 33.0683 18.4619Z" fill="black" stroke="black" stroke-width="0.390625"/>
<path d="M8.46872 24.6123C8.46872 25.0369 8.12464 25.381 7.70006 25.381C7.27548 25.381 6.9314 25.0369 6.9314 24.6123C6.9314 24.1877 7.27548 23.8437 7.70006 23.8437C8.12464 23.8437 8.46872 24.1877 8.46872 24.6123Z" fill="black" stroke="black" stroke-width="0.390625"/>
<path d="M14.6182 24.6123C14.6182 25.0369 14.2741 25.381 13.8495 25.381C13.4249 25.381 13.0804 25.0369 13.0804 24.6123C13.0804 24.1877 13.4249 23.8437 13.8495 23.8437C14.2741 23.8437 14.6182 24.1877 14.6182 24.6123Z" fill="black" stroke="black" stroke-width="0.390625"/>
<path d="M20.7685 24.6123C20.7685 25.0369 20.4245 25.381 19.9999 25.381C19.5753 25.381 19.2308 25.0369 19.2308 24.6123C19.2308 24.1877 19.5753 23.8437 19.9999 23.8437C20.4245 23.8437 20.7685 24.1877 20.7685 24.6123Z" fill="black" stroke="black" stroke-width="0.390625"/>
<path d="M26.9189 24.6123C26.9189 25.0369 26.5748 25.381 26.1503 25.381C25.7257 25.381 25.3812 25.0369 25.3812 24.6123C25.3812 24.1877 25.7257 23.8437 26.1503 23.8437C26.5748 23.8437 26.9189 24.1877 26.9189 24.6123Z" fill="black" stroke="black" stroke-width="0.390625"/>
<path d="M33.0683 24.6123C33.0683 25.0369 32.7239 25.381 32.2993 25.381C31.8747 25.381 31.5306 25.0369 31.5306 24.6123C31.5306 24.1877 31.8747 23.8437 32.2993 23.8437C32.7239 23.8437 33.0683 24.1877 33.0683 24.6123Z" fill="black" stroke="black" stroke-width="0.390625"/>
<path d="M8.46872 30.7627C8.46872 31.1873 8.12464 31.5314 7.70006 31.5314C7.27548 31.5314 6.9314 31.1873 6.9314 30.7627C6.9314 30.3381 7.27548 29.994 7.70006 29.994C8.12464 29.994 8.46872 30.3381 8.46872 30.7627Z" fill="black" stroke="black" stroke-width="0.390625"/>
<path d="M14.6182 30.7627C14.6182 31.1873 14.2741 31.5314 13.8495 31.5314C13.4249 31.5314 13.0804 31.1873 13.0804 30.7627C13.0804 30.3381 13.4249 29.994 13.8495 29.994C14.2741 29.994 14.6182 30.3381 14.6182 30.7627Z" fill="black" stroke="black" stroke-width="0.390625"/>
<path d="M20.7685 30.7627C20.7685 31.1873 20.4245 31.5314 19.9999 31.5314C19.5753 31.5314 19.2308 31.1873 19.2308 30.7627C19.2308 30.3381 19.5753 29.994 19.9999 29.994C20.4245 29.994 20.7685 30.3381 20.7685 30.7627Z" fill="black" stroke="black" stroke-width="0.390625"/>
</svg>
