<svg width="34" height="36" viewBox="0 0 34 36" fill="none" xmlns="http://www.w3.org/2000/svg">
<path d="M33.0937 17.3L29.5952 12.6314L27.7257 14.0309L29.825 16.83L23.9973 16.8297V6.33361C23.9973 4.7879 23.3833 3.30564 22.2905 2.21283C21.1977 1.12001 19.7151 0.505951 18.1697 0.505951H6.50406C4.95953 0.509003 3.47882 1.12393 2.38663 2.21618C1.29445 3.30837 0.679446 4.78884 0.676712 6.33361V29.6649C0.679459 31.2096 1.29438 32.6901 2.38663 33.7826C3.47882 34.8748 4.9596 35.4895 6.50406 35.4925H18.1697C19.7151 35.4925 21.1977 34.8785 22.2905 33.7856C23.3833 32.6928 23.9973 31.2106 23.9973 29.6649V19.1688H29.825L27.7257 21.9678L29.5952 23.3674L33.0937 18.6988C33.2445 18.4964 33.326 18.2511 33.326 17.999C33.326 17.7466 33.2445 17.5013 33.0937 17.2992V17.3ZM21.6687 29.6656C21.6687 30.5937 21.3001 31.4836 20.644 32.1397C19.9879 32.7958 19.098 33.1645 18.1699 33.1645H6.50429C5.57656 33.1645 4.68663 32.7958 4.03054 32.1397C3.37442 31.4836 3.00577 30.5937 3.00577 29.6656V6.33438C3.00577 5.40633 3.37443 4.51641 4.03054 3.86032C4.68667 3.20419 5.57656 2.83555 6.50429 2.83555H18.1699C19.098 2.83555 19.9879 3.20421 20.644 3.86032C21.3001 4.51644 21.6687 5.40633 21.6687 6.33438V16.8305H12.3312V19.1593H21.6578L21.6687 29.6656Z" fill="black" stroke="black" stroke-width="0.390625"/>
</svg>
