<svg width="21" height="23" viewBox="0 0 21 23" fill="none" xmlns="http://www.w3.org/2000/svg">
<path fill-rule="evenodd" clip-rule="evenodd" d="M8.97604 20.6368L12.0242 21.783V10.4163C12.0242 10.3562 12.0492 10.2961 12.0892 10.2511L19.3968 2.7135C19.6772 2.4232 19.7722 1.8676 19.607 1.47717C19.5069 1.23684 19.3318 1.11172 19.0915 1.11172H1.91909C1.67876 1.11172 1.50367 1.23188 1.40352 1.47717C1.23834 1.86761 1.33352 2.42322 1.61371 2.7135L8.91107 10.2511C8.95608 10.2961 8.97611 10.3562 8.97611 10.4163L8.97604 20.6368ZM12.2593 22.3586C12.2294 22.3586 12.2042 22.3537 12.1743 22.3435L8.65577 21.0222C8.56574 20.9871 8.5007 20.897 8.5007 20.8019V10.5113L1.26828 3.04404C0.852856 2.61355 0.722769 1.86284 0.96291 1.29731C1.138 0.881894 1.4884 0.646729 1.91887 0.646729H19.0912C19.5217 0.646729 19.8721 0.887055 20.0472 1.29731C20.2875 1.86782 20.1572 2.6187 19.7418 3.04404L12.4996 10.5118V22.1236C12.4996 22.2037 12.4596 22.2737 12.3995 22.3188C12.3545 22.3439 12.3095 22.359 12.2593 22.359L12.2593 22.3586Z" fill="black" stroke="black" stroke-width="0.390625"/>
</svg>
