<svg width="92" height="62" viewBox="0 0 92 62" fill="none" xmlns="http://www.w3.org/2000/svg">
<ellipse cx="45.8942" cy="30.5961" rx="45.8942" ry="30.5961" fill="#8EDBF2"/>
<ellipse cx="45.8943" cy="30.5962" rx="42.0697" ry="26.7716" fill="#656565"/>
<path d="M41.5343 3.82674L43.7142 3.71022L44.7851 3.67139H45.8942V13.6916H41.5343V3.82674Z" fill="#8EDBF2"/>
<path d="M41.5343 49.4917L43.7142 49.3751L44.7851 49.3363H45.8942V59.3565H41.5343V49.4917Z" fill="#8EDBF2"/>
<path d="M45.8944 10.0967C40.9422 10.0967 36.0386 10.6259 31.4635 11.6542C26.8883 12.6825 22.7312 14.1896 19.2295 16.0896C15.7279 17.9896 12.9502 20.2452 11.0551 22.7277C9.16 25.2102 8.18461 27.8709 8.18461 30.5579C8.18461 33.2449 9.16 35.9055 11.0551 38.388C12.9502 40.8705 15.7279 43.1261 19.2295 45.0261C22.7312 46.9261 26.8883 48.4332 31.4635 49.4615C36.0386 50.4898 40.9422 51.019 45.8944 51.019V47.1254C41.8846 47.1254 37.9141 46.6968 34.2096 45.8642C30.5051 45.0316 27.139 43.8113 24.3037 42.2729C21.4684 40.7344 19.2193 38.908 17.6848 36.898C16.1504 34.8879 15.3606 32.7335 15.3606 30.5579C15.3606 28.3822 16.1504 26.2278 17.6848 24.2177C19.2193 22.2077 21.4684 20.3813 24.3037 18.8429C27.139 17.3044 30.5051 16.0841 34.2096 15.2515C37.9141 14.4189 41.8846 13.9903 45.8944 13.9903V10.0967Z" fill="#8EDBF2"/>
<path d="M25.9317 32.2381C26.1468 32.2381 26.3106 32.1501 26.423 31.9741C26.5404 31.7932 26.599 31.5463 26.599 31.2334V28.9161C26.599 27.9628 26.3741 27.4861 25.9244 27.4861C25.7141 27.4861 25.5504 27.5717 25.433 27.7428C25.3157 27.9139 25.257 28.1559 25.257 28.4688V30.8521C25.257 31.7761 25.4819 32.2381 25.9317 32.2381ZM25.873 33.1181C24.7535 33.1181 23.9346 32.8639 23.4164 32.3554C22.8981 31.847 22.639 31.0354 22.639 29.9208C22.639 28.8159 22.9006 27.9848 23.4237 27.4274C23.9468 26.8652 24.7975 26.5841 25.9757 26.5841C27.1246 26.5841 27.9533 26.853 28.4617 27.3908C28.975 27.9237 29.2317 28.7328 29.2317 29.8181C29.2317 30.9426 28.9604 31.7737 28.4177 32.3114C27.8799 32.8492 27.0317 33.1181 25.873 33.1181ZM32.3992 32.9641H30.0306V28.2194L29.5906 27.9481V27.1634L31.1672 26.7308H32.4139V27.6768L32.5019 27.5668C32.5606 27.4886 32.6461 27.3957 32.7586 27.2881C32.8759 27.1806 33.0055 27.0754 33.1472 26.9728C33.289 26.8652 33.4577 26.7748 33.6532 26.7014C33.8537 26.6232 34.0492 26.5841 34.2399 26.5841C34.9097 26.5841 35.3815 26.7674 35.6552 27.1341C35.9339 27.5008 36.0732 28.1143 36.0732 28.9748C36.0732 29.0041 36.0732 29.0481 36.0732 29.1068C36.0684 29.1654 36.0659 29.2119 36.0659 29.2461V32.9641H33.6459V29.0334C33.6606 28.5739 33.465 28.3441 33.0592 28.3441C33.0299 28.3441 33.0006 28.3466 32.9712 28.3514C32.9468 28.3563 32.9224 28.3612 32.8979 28.3661C32.8784 28.371 32.8539 28.3808 32.8246 28.3954C32.8001 28.4052 32.7781 28.415 32.7586 28.4248C32.739 28.4297 32.717 28.4419 32.6926 28.4614C32.6681 28.4761 32.6486 28.4883 32.6339 28.4981C32.6192 28.5079 32.5972 28.525 32.5679 28.5494C32.5435 28.569 32.5239 28.5837 32.5092 28.5934C32.4995 28.6032 32.4799 28.6203 32.4506 28.6448C32.4261 28.6643 32.409 28.679 32.3992 28.6888V32.9641ZM39.5435 32.9641H37.1602V28.0214H36.4488V27.0461L37.1895 26.7308V26.0928C37.1895 25.599 37.258 25.1712 37.3948 24.8094C37.5317 24.4477 37.7224 24.1666 37.9668 23.9661C38.2162 23.7657 38.49 23.6214 38.7882 23.5334C39.0913 23.4406 39.4286 23.3941 39.8002 23.3941C40.1326 23.3941 40.4455 23.4381 40.7388 23.5261C41.0322 23.6141 41.2155 23.6948 41.2888 23.7681L41.0102 24.8828C40.7755 24.7654 40.5335 24.7068 40.2842 24.7068C40.2206 24.7068 40.162 24.7117 40.1082 24.7214C39.7317 24.7801 39.5435 25.1003 39.5435 25.6821V26.7308H40.4895V28.0214H39.5435V32.9641ZM44.4092 29.1728C44.4092 28.5519 44.3774 28.1119 44.3138 27.8528C44.2503 27.5937 44.133 27.4641 43.9618 27.4641C43.8152 27.4641 43.6954 27.491 43.6025 27.5448C43.5096 27.5937 43.4412 27.6743 43.3972 27.7868C43.3532 27.8943 43.3238 28.0068 43.3092 28.1241C43.2994 28.2366 43.2945 28.3808 43.2945 28.5568V29.1728H44.4092ZM43.8225 33.1181C43.275 33.1181 42.7983 33.035 42.3925 32.8688C41.9916 32.7026 41.6738 32.4703 41.4392 32.1721C41.2094 31.8739 41.0407 31.539 40.9332 31.1674C40.8256 30.791 40.7718 30.373 40.7718 29.9134C40.7718 28.8183 41.0505 27.9897 41.6078 27.4274C42.1652 26.8652 42.945 26.5841 43.9472 26.5841C44.9103 26.5841 45.5996 26.8114 46.0152 27.2661C46.4307 27.7159 46.6385 28.4419 46.6385 29.4441V30.2581H43.2872V30.3974C43.2872 30.6859 43.3165 30.923 43.3752 31.1088C43.4387 31.2946 43.5292 31.4314 43.6465 31.5194C43.7638 31.6074 43.8836 31.6661 44.0058 31.6954C44.1281 31.7248 44.2772 31.7394 44.4532 31.7394C44.6243 31.7394 44.8076 31.7174 45.0032 31.6734C45.2036 31.6294 45.4041 31.561 45.6045 31.4681C45.8098 31.3752 45.981 31.2652 46.1178 31.1381L46.5505 31.8788C46.3696 32.1721 46.1032 32.419 45.7512 32.6194C45.4041 32.815 45.0692 32.947 44.7465 33.0154C44.4238 33.0839 44.1158 33.1181 43.8225 33.1181ZM49.8016 32.9641H47.4329V28.2194L46.9929 27.9481V27.1194L48.5696 26.7308H49.1636L49.3763 28.4761C49.5767 27.2783 50.2196 26.6794 51.3049 26.6794C51.4271 26.6794 51.5543 26.7014 51.6863 26.7454L51.4369 29.3561C51.3343 29.2632 51.1094 29.2168 50.7623 29.2168C50.2636 29.2168 49.9434 29.3488 49.8016 29.6128V32.9641ZM55.5596 29.1728C55.5596 28.5519 55.5278 28.1119 55.4642 27.8528C55.4007 27.5937 55.2833 27.4641 55.1122 27.4641C54.9656 27.4641 54.8458 27.491 54.7529 27.5448C54.66 27.5937 54.5916 27.6743 54.5476 27.7868C54.5036 27.8943 54.4742 28.0068 54.4596 28.1241C54.4498 28.2366 54.4449 28.3808 54.4449 28.5568V29.1728H55.5596ZM54.9729 33.1181C54.4253 33.1181 53.9487 33.035 53.5429 32.8688C53.142 32.7026 52.8242 32.4703 52.5896 32.1721C52.3598 31.8739 52.1911 31.539 52.0836 31.1674C51.976 30.791 51.9222 30.373 51.9222 29.9134C51.9222 28.8183 52.2009 27.9897 52.7582 27.4274C53.3156 26.8652 54.0953 26.5841 55.0976 26.5841C56.0607 26.5841 56.75 26.8114 57.1656 27.2661C57.5811 27.7159 57.7889 28.4419 57.7889 29.4441V30.2581H54.4376V30.3974C54.4376 30.6859 54.4669 30.923 54.5256 31.1088C54.5891 31.2946 54.6796 31.4314 54.7969 31.5194C54.9142 31.6074 55.034 31.6661 55.1562 31.6954C55.2785 31.7248 55.4276 31.7394 55.6036 31.7394C55.7747 31.7394 55.958 31.7174 56.1536 31.6734C56.354 31.6294 56.5545 31.561 56.7549 31.4681C56.9602 31.3752 57.1313 31.2652 57.2682 31.1381L57.7009 31.8788C57.52 32.1721 57.2536 32.419 56.9016 32.6194C56.5545 32.815 56.2196 32.947 55.8969 33.0154C55.5742 33.0839 55.2662 33.1181 54.9729 33.1181ZM60.952 32.9641H58.5833V28.2194L58.1433 27.9481V27.1634L59.72 26.7308H60.9666V27.6768L61.0546 27.5668C61.1133 27.4886 61.1989 27.3957 61.3113 27.2881C61.4286 27.1806 61.5582 27.0754 61.7 26.9728C61.8418 26.8652 62.0104 26.7748 62.206 26.7014C62.4064 26.6232 62.602 26.5841 62.7926 26.5841C63.4624 26.5841 63.9342 26.7674 64.208 27.1341C64.4866 27.5008 64.626 28.1143 64.626 28.9748C64.626 29.0041 64.626 29.0481 64.626 29.1068C64.6211 29.1654 64.6186 29.2119 64.6186 29.2461V32.9641H62.1986V29.0334C62.2133 28.5739 62.0178 28.3441 61.612 28.3441C61.5826 28.3441 61.5533 28.3466 61.524 28.3514C61.4995 28.3563 61.4751 28.3612 61.4506 28.3661C61.4311 28.371 61.4066 28.3808 61.3773 28.3954C61.3529 28.4052 61.3309 28.415 61.3113 28.4248C61.2918 28.4297 61.2698 28.4419 61.2453 28.4614C61.2209 28.4761 61.2013 28.4883 61.1866 28.4981C61.172 28.5079 61.15 28.525 61.1206 28.5494C61.0962 28.569 61.0766 28.5837 61.062 28.5934C61.0522 28.6032 61.0326 28.6203 61.0033 28.6448C60.9789 28.6643 60.9618 28.679 60.952 28.6888V32.9641ZM67.2602 33.1181C66.6002 33.1181 66.1382 32.9201 65.8742 32.5241C65.6151 32.1281 65.4856 31.4583 65.4856 30.5148V28.0214H64.9796V27.0021L65.8449 26.7308L66.5929 25.0221H67.8836V26.7308H69.0862V28.0214H67.8616V30.7494C67.8616 31.1406 67.9178 31.3997 68.0302 31.5268C68.1427 31.6539 68.3162 31.7174 68.5509 31.7174C68.6536 31.7174 68.7465 31.7052 68.8296 31.6808C68.9127 31.6563 68.9811 31.6221 69.0349 31.5781V32.5754C68.9616 32.6488 68.8662 32.7221 68.7489 32.7954C68.6316 32.8639 68.436 32.9348 68.1622 33.0081C67.8934 33.0814 67.5927 33.1181 67.2602 33.1181ZM72.6817 32.2381C72.8968 32.2381 73.0606 32.1501 73.173 31.9741C73.2904 31.7932 73.349 31.5463 73.349 31.2334V28.9161C73.349 27.9628 73.1241 27.4861 72.6744 27.4861C72.4641 27.4861 72.3004 27.5717 72.183 27.7428C72.0657 27.9139 72.007 28.1559 72.007 28.4688V30.8521C72.007 31.7761 72.2319 32.2381 72.6817 32.2381ZM72.623 33.1181C71.5035 33.1181 70.6846 32.8639 70.1664 32.3554C69.6481 31.847 69.389 31.0354 69.389 29.9208C69.389 28.8159 69.6506 27.9848 70.1737 27.4274C70.6968 26.8652 71.5475 26.5841 72.7257 26.5841C73.8746 26.5841 74.7033 26.853 75.2117 27.3908C75.725 27.9237 75.9817 28.7328 75.9817 29.8181C75.9817 30.9426 75.7104 31.7737 75.1677 32.3114C74.6299 32.8492 73.7817 33.1181 72.623 33.1181ZM79.1492 32.9641H76.7806V28.2194L76.3406 27.9481V27.1194L77.9172 26.7308H78.5112L78.7239 28.4761C78.9244 27.2783 79.5672 26.6794 80.6526 26.6794C80.7748 26.6794 80.9019 26.7014 81.0339 26.7454L80.7846 29.3561C80.6819 29.2632 80.457 29.2168 80.1099 29.2168C79.6112 29.2168 79.291 29.3488 79.1492 29.6128V32.9641Z" fill="#8EDBF2"/>
</svg>
