<svg width="22" height="22" viewBox="0 0 22 22" fill="none" xmlns="http://www.w3.org/2000/svg">
<path d="M21.2246 20.1797L14.0751 13.015H14.0755C15.7547 10.9588 16.2541 8.18176 15.3969 5.66936C14.5393 3.15696 12.4466 1.26487 9.86063 0.664085C7.27499 0.0632748 4.56239 0.839182 2.68515 2.71643C0.807902 4.59328 0.0324143 7.30627 0.632805 9.89192C1.23362 12.4776 3.12607 14.5706 5.63847 15.4279C8.15087 16.2854 10.9275 15.7857 12.9837 14.1065L20.1794 21.2251C20.3182 21.3747 20.5136 21.4586 20.7173 21.4559C21.0251 21.4517 21.3005 21.2644 21.4176 20.9798C21.5347 20.6956 21.471 20.3687 21.2555 20.149L21.2246 20.1797ZM3.78906 12.4923L3.78945 12.4919C2.33837 11.0393 1.70781 8.95833 2.10907 6.94456C2.51 4.93079 3.88935 3.25003 5.78642 2.46419C7.6831 1.67798 9.84716 1.89084 11.555 3.03068C13.2628 4.17052 14.289 6.0878 14.2905 8.14083C14.2917 9.77238 13.6447 11.3375 12.4915 12.4919C11.3246 13.6058 9.77509 14.2295 8.16181 14.2353C6.54892 14.241 4.99482 13.6284 3.81991 12.5229L3.78906 12.4923Z" fill="black" stroke="black" stroke-width="0.390625"/>
</svg>
