<svg width="83" height="97" viewBox="0 0 83 97" fill="none" xmlns="http://www.w3.org/2000/svg">
<path d="M41.7233 0.713623C29.7386 0.713623 19.9439 10.4899 19.9439 22.467C19.9439 34.4442 29.7388 44.2269 41.7233 44.2269C53.7078 44.2269 63.5027 34.444 63.5027 22.467C63.5019 10.4907 53.707 0.713623 41.7233 0.713623ZM41.7233 7.54012C50.0225 7.54012 56.6764 14.1839 56.6764 22.4662C56.6764 30.7493 50.0227 37.3989 41.7233 37.3989C33.4239 37.3989 26.7702 30.7493 26.7702 22.4662C26.7693 14.1839 33.4232 7.54012 41.7224 7.54012H41.7233Z" fill="black" stroke="black" stroke-width="0.390625"/>
<path d="M41.4957 52.1595C19.0398 52.1595 0.76387 70.4281 0.76387 92.8718C0.76387 93.7771 1.12293 94.6451 1.76317 95.2854C2.40339 95.9256 3.27143 96.2847 4.17677 96.2847C5.08212 96.2847 5.95011 95.9256 6.59037 95.2854C7.23059 94.6452 7.59052 93.7771 7.59052 92.8718C7.59052 74.1197 22.7273 58.9864 41.4954 58.9864C60.2635 58.9864 75.4089 74.1199 75.4089 92.8718C75.4089 93.7771 75.768 94.6451 76.4082 95.2854C77.0484 95.9256 77.9165 96.2847 78.8218 96.2847C79.7271 96.2847 80.5952 95.9256 81.2354 95.2854C81.8756 94.6452 82.2356 93.7771 82.2356 92.8718C82.2356 70.4268 63.9527 52.1595 41.4973 52.1595H41.4957Z" fill="black" stroke="black" stroke-width="0.390625"/>
</svg>
